<svg width="115" height="120" viewBox="0 0 115 120" fill="none" xmlns="http://www.w3.org/2000/svg">
<path d="M112.227 74.0037L98.148 99.9289C95.3886 105.078 90.264 107.772 85.0831 107.413H73.8203V119.388L59.7418 92.4447L73.8203 65.5016V77.4763H89.7009L77.1992 54.425L101.583 39.4566L111.72 58.1372C114.648 62.7474 115.042 68.9144 112.227 74.0037ZM41.2145 0H69.3715C74.8903 0 79.677 3.41279 81.9859 8.32242L87.6173 18.7404L97.3596 12.7531L82.4927 39.1573L53.491 39.6961L63.2333 33.7088L55.293 19.0398L42.8476 42.0911L18.4073 27.1227L28.5438 8.44216C30.8527 3.47266 35.6394 0 41.2145 0ZM17.7878 99.9888L3.70932 74.0635C0.949935 68.9743 1.34413 62.8672 4.21615 58.2569L9.84756 47.8988L0.105225 41.9115L29.0506 42.3904L43.9739 68.8545L34.2315 62.8672L26.2913 77.4763H51.2947V107.413H31.0216C28.3834 107.616 25.7444 107.028 23.405 105.715C21.0655 104.403 19.1193 102.419 17.7878 99.9888Z" fill="black"/>
</svg>
