<svg width="115" height="106" viewBox="0 0 115 106" fill="none" xmlns="http://www.w3.org/2000/svg">
<path d="M32.131 16.4454C29.9889 16.4454 28.5609 18.4188 28.5609 19.7345V36.1798H21.4207V19.7345C21.4207 17.761 19.9926 16.4454 17.8506 16.4454C15.7085 16.4454 14.2804 18.4188 14.2804 19.7345V36.1798H7.14022V19.7345C7.14022 17.761 5.71218 16.4454 3.57011 16.4454C1.42804 16.4454 0 18.4188 0 19.7345V41.4424C0 47.3627 4.99815 51.9674 10.7103 52.6252V98.6723C10.7103 102.619 13.5664 105.25 17.8506 105.25C22.1347 105.25 24.9908 102.619 24.9908 98.6723V52.6252C30.703 51.9674 35.7011 47.3627 35.7011 41.4424V19.7345C35.7011 18.4188 34.2731 16.4454 32.131 16.4454ZM46.4114 19.7345V59.2034H53.5517V98.6723C53.5517 102.619 56.4077 105.25 60.6919 105.25C64.976 105.25 67.8321 102.619 67.8321 98.6723V0C55.6937 0 46.4114 8.5516 46.4114 19.7345ZM96.393 13.1563C86.3967 13.1563 78.5424 23.0235 78.5424 34.8642C77.8284 42.758 82.1125 49.994 89.2528 54.5987V98.6723C89.2528 102.619 92.1088 105.25 96.393 105.25C100.677 105.25 103.533 102.619 103.533 98.6723V54.5987C110.673 49.994 114.958 42.758 114.244 34.8642C114.244 23.0235 106.389 13.1563 96.393 13.1563Z" fill="black"/>
</svg>
