<svg width="157" height="157" viewBox="0 0 157 157" fill="none" xmlns="http://www.w3.org/2000/svg">
<path d="M146.194 88.0157C155.592 70.1128 136.489 57.6975 111.514 51.6088C113.393 47.338 113.938 41.7473 108.639 36.4093C101.844 29.5773 106.36 19.625 106.36 19.625C106.36 19.625 92.0976 32.7811 101.103 41.8528C104.425 45.1964 106.154 48.1328 106.981 50.5883C100.086 49.1681 93.1046 48.206 86.0826 47.7084C88.18 42.0073 88.3836 34.8466 81.7749 27.9902C72.7278 18.5922 78.7526 4.90625 78.7526 4.90625C78.7526 4.90625 59.7336 22.9956 71.7416 35.4673C76.1253 40.0154 78.4337 44.0189 79.5523 47.3748C72.1096 47.1515 64.9464 47.4778 58.583 48.3683C59.3411 44.7008 58.7081 40.4839 54.6629 36.4117C47.8678 29.5798 52.3864 19.625 52.3864 19.625C52.3864 19.625 38.1215 32.7811 47.1294 41.8528C49.9505 44.6935 51.6039 47.23 52.5533 49.4403C51.4771 49.6758 50.437 49.9317 49.4329 50.2081C18.4205 47.3061 4.89395 53.7136 11.0734 66.2834C0.289433 77.0674 4.34199 89.3747 17.8366 98.7923C24.8771 127.791 26.69 152.094 79.7167 152.094C127.033 152.094 133.57 132.739 139.431 107.967C157.015 104.466 153.269 96.0374 146.194 88.0157ZM141.81 85.1185C135.92 97.6785 110.359 107.133 79.7167 107.133C49.0772 107.133 23.5156 97.6785 17.6232 85.1185C17.4981 84.7457 17.3779 84.3581 17.2577 83.9803C20.0641 76.8613 29.1848 70.6843 41.995 66.5484C38.985 69.4578 38.3595 73.8023 46.2806 75.3257C48.5473 75.7623 54.7709 74.2512 52.0504 66.5288C51.6701 65.4494 51.0495 64.7257 50.2866 64.289C59.0884 62.275 69.0799 61.1147 79.7167 61.1147C80.9089 61.1147 82.0791 61.1564 83.2541 61.1834C77.1164 63.3618 72.1096 70.0735 84.6426 72.0532C87.4097 72.4898 95.007 70.9787 91.6855 63.2563C91.3949 62.5682 90.9299 61.9679 90.3363 61.5146C102.079 62.3781 112.719 64.6398 121.319 67.9C113.756 67.4781 105.367 72.139 118.802 78.7012C121.685 80.1093 130.442 81.402 129.238 72.875C129.15 72.2592 128.932 71.669 128.6 71.1431C135.476 74.7663 140.272 79.1599 142.173 83.9803L141.81 85.1185Z" fill="black"/>
<path d="M63.3813 90.3755C71.3123 90.3755 76.6012 83.205 80.7446 80.3987C86.5339 76.4737 101.091 74.9429 88.2707 74.6338C76.1106 74.3419 61.0975 84.2133 51.0642 83.5338C34.4516 82.4053 51.4665 90.3755 63.3813 90.3755ZM80.5189 105.026C83.3203 105.565 91.0207 103.696 87.6526 94.146C83.8478 83.34 60.8154 101.233 80.5189 105.026ZM36.9121 81.3897C34.2358 77.6119 30.3549 72.821 28.7481 75.3158C26.5526 78.7281 25.8608 85.5944 27.4553 85.8986C39.9565 88.2953 39.0807 84.4488 36.9121 81.3897ZM109.586 82.9205C111.84 80.1288 107.339 73.4097 104.449 74.5848C99.9255 76.4246 97.3179 75.1784 95.3308 77.9701C90.6773 84.5076 106.522 86.7105 109.586 82.9205ZM108.178 90.9201C104.935 89.4899 105.7 94.2809 100.909 90.4369C97.4798 87.6844 90.1008 94.6268 94.9678 99.3417C100.384 104.589 101.827 99.6017 104.103 100.021C108.73 100.872 116.685 94.6734 108.178 90.9201ZM54.2533 92.5588C52.5631 90.8956 50.2964 92.9022 49.0158 95.3505C47.7476 94.7274 46.7148 94.5826 46.7148 94.5826C45.7458 91.8204 42.8634 89.9266 42.8634 89.9266C42.8634 89.9266 43.1259 92.7992 43.5061 94.1999C40.322 93.0691 40.2238 87.3778 40.2238 87.3778C40.2238 87.3778 38.0872 88.6559 38.281 90.8269C34.7755 87.9984 31.79 89.3207 31.79 89.3207C31.79 89.3207 36.2375 91.8229 36.8508 93.5106C34.3535 93.7044 32.8964 94.5679 32.0476 96.577C32.05 96.5942 36.9833 94.2294 40.6335 95.9368C39.1935 97.1143 39.9098 100.056 39.9098 100.056C43.3074 96.4544 46.0206 96.8395 48.1916 97.4847C47.9291 98.5861 47.9463 99.5919 48.4124 100.203C52.1779 105.153 65.2948 104.039 68.8175 100.379C73.0834 95.9515 61.2299 99.4251 54.2533 92.5588Z" fill="black"/>
<path d="M63.5189 73.9127C62.4027 76.1549 62.3953 77.8476 63.6857 79.6089C63.6857 79.6089 64.2057 74.1679 67.5444 71.911C67.8167 73.7508 70.7065 74.6438 70.7065 74.6438C68.3957 66.4602 75.1418 66.0333 75.1099 63.0969C71.5332 63.3987 69.502 65.999 69.502 65.999C66.6343 65.4127 63.5262 66.9115 63.5262 66.9115C63.5262 66.9115 66.129 68.1602 67.5248 68.5551C64.9196 70.7065 59.9839 67.8683 59.9839 67.8683C59.9839 67.8683 59.9839 70.3606 61.9464 71.3051C57.7197 72.8628 57.3223 76.1009 57.3223 76.1009C57.3223 76.1009 61.7526 73.5718 63.5189 73.9127ZM126.199 85.0892C127.214 83.161 125.733 81.1568 125.733 81.1568C125.733 81.1568 123.454 86.3746 120.081 86.1955C120.969 85.0475 122.318 82.4962 122.318 82.4962C122.318 82.4962 118.928 83.1414 116.97 85.3173C116.97 85.3173 113.791 84.4367 110.739 86.3207C112.461 88.7002 118.138 85.0279 121.148 92.9809C121.148 92.9809 122.938 90.5449 122.063 88.9038C126.091 88.7296 129.748 92.792 129.748 92.792C129.734 90.6087 128.723 89.2546 126.488 88.1163C127.705 86.7941 132.773 86.1931 132.773 86.1931C132.773 86.1931 130.526 83.8258 126.199 85.0892Z" fill="black"/>
</svg>
