<svg width="120" height="120" viewBox="0 0 120 120" fill="none" xmlns="http://www.w3.org/2000/svg">
<path d="M30 25C28.0109 25 26.1032 25.7902 24.6967 27.1967C23.2902 28.6032 22.5 30.5109 22.5 32.5C22.5 34.4891 23.2902 36.3968 24.6967 37.8033C26.1032 39.2098 28.0109 40 30 40C31.9891 40 33.8968 39.2098 35.3033 37.8033C36.7098 36.3968 37.5 34.4891 37.5 32.5C37.5 30.5109 36.7098 28.6032 35.3033 27.1967C33.8968 25.7902 31.9891 25 30 25ZM12.5 32.5C12.5 30.2019 12.9527 27.9262 13.8321 25.803C14.7116 23.6798 16.0006 21.7507 17.6256 20.1256C19.2507 18.5006 21.1798 17.2116 23.303 16.3321C25.4262 15.4527 27.7019 15 30 15C32.2981 15 34.5738 15.4527 36.697 16.3321C38.8202 17.2116 40.7493 18.5006 42.3744 20.1256C43.9994 21.7507 45.2884 23.6798 46.1679 25.803C47.0473 27.9262 47.5 30.2019 47.5 32.5C47.5 37.1413 45.6562 41.5925 42.3744 44.8744C39.0925 48.1563 34.6413 50 30 50C25.3587 50 20.9075 48.1563 17.6256 44.8744C14.3437 41.5925 12.5 37.1413 12.5 32.5ZM102.07 25L25 102.07L17.93 95L95 17.93L102.07 25ZM90 80C88.0109 80 86.1032 80.7902 84.6967 82.1967C83.2902 83.6032 82.5 85.5109 82.5 87.5C82.5 89.4891 83.2902 91.3968 84.6967 92.8033C86.1032 94.2098 88.0109 95 90 95C91.9891 95 93.8968 94.2098 95.3033 92.8033C96.7098 91.3968 97.5 89.4891 97.5 87.5C97.5 85.5109 96.7098 83.6032 95.3033 82.1967C93.8968 80.7902 91.9891 80 90 80ZM72.5 87.5C72.5 82.8587 74.3437 78.4075 77.6256 75.1256C80.9075 71.8437 85.3587 70 90 70C94.6413 70 99.0925 71.8437 102.374 75.1256C105.656 78.4075 107.5 82.8587 107.5 87.5C107.5 92.1413 105.656 96.5925 102.374 99.8744C99.0925 103.156 94.6413 105 90 105C85.3587 105 80.9075 103.156 77.6256 99.8744C74.3437 96.5925 72.5 92.1413 72.5 87.5Z" fill="black"/>
</svg>
