<svg width="29" height="31" viewBox="0 0 29 31" fill="none" xmlns="http://www.w3.org/2000/svg">
<path d="M28 30L21.4856 23.003L28 30ZM21.4856 23.003C22.5999 21.8062 23.4838 20.3853 24.0869 18.8215C24.6899 17.2577 25.0003 15.5817 25.0003 13.8891C25.0003 12.1965 24.69 10.5204 24.0869 8.95664C23.4838 7.39286 22.5999 5.97198 21.4856 4.77512C20.3713 3.57826 19.0484 2.62886 17.5924 1.98112C16.1365 1.33339 14.5761 1 13.0002 1C11.4243 1 9.86383 1.33339 8.4079 1.98112C6.95198 2.62886 5.62909 3.57826 4.51477 4.77512C2.2643 7.19229 1 10.4707 1 13.8891C1 17.3075 2.2643 20.5859 4.51477 23.003C6.76524 25.4202 9.81753 26.7781 13.0002 26.7781C16.1828 26.7781 19.2351 25.4202 21.4856 23.003Z" fill="#D9D9D9"/>
<path d="M28 30L21.4856 23.003M21.4856 23.003C22.5999 21.8062 23.4838 20.3853 24.0869 18.8215C24.6899 17.2577 25.0003 15.5817 25.0003 13.8891C25.0003 12.1965 24.69 10.5204 24.0869 8.95664C23.4838 7.39286 22.5999 5.97198 21.4856 4.77512C20.3713 3.57826 19.0484 2.62886 17.5924 1.98112C16.1365 1.33339 14.5761 1 13.0002 1C11.4243 1 9.86383 1.33339 8.4079 1.98112C6.95198 2.62886 5.62909 3.57826 4.51477 4.77512C2.2643 7.19229 1 10.4707 1 13.8891C1 17.3075 2.2643 20.5859 4.51477 23.003C6.76524 25.4202 9.81753 26.7781 13.0002 26.7781C16.1828 26.7781 19.2351 25.4202 21.4856 23.003Z" stroke="black" stroke-linecap="round" stroke-linejoin="round"/>
</svg>
